<?xml version="1.0"?>
<svg xmlns="http://www.w3.org/2000/svg" viewBox="0 0 50 50">
    <path d="M 3.5 2 C 3.1 2 2.7003906 2.2 2.4003906 2.5 C 2.1003906 2.8 2 3.1996094 2 3.5996094 C 2 3.9996094 2.2 4.5007812 2.5 4.8007812 C 3.0076673 5.3084485 3.5571079 5.7026866 4.1308594 6.0214844 L 7.9414062 33.644531 L 2.2929688 39.292969 A 1.0001 1.0001 0 0 0 2.8359375 40.986328 L 8.1328125 41.869141 L 9.0136719 47.164062 A 1.0001 1.0001 0 0 0 10.707031 47.707031 L 16.355469 42.058594 L 43.962891 45.865234 C 44.281274 46.433671 44.681592 46.982373 45.199219 47.5 C 45.499219 47.8 46.000391 48 46.400391 48 C 46.800391 48 47.2 47.899609 47.5 47.599609 C 48.2 46.999609 48.199609 46.000391 47.599609 45.400391 C 45.699609 43.500391 46.2 40.699609 46.5 37.599609 C 47.3 28.899609 46.899219 24.200391 44.199219 18.400391 C 42.90145 16.00451 40.807084 12.912955 38.511719 12.902344 L 41.707031 9.7070312 A 1.0001 1.0001 0 0 0 41.876953 9.4863281 C 42.178147 9.6447043 42.501357 9.7502573 42.841797 9.7832031 C 43.502933 9.8471841 44.210613 9.6038404 44.707031 9.1074219 C 45.092734 8.7217196 45.267428 8.3582144 45.587891 7.8046875 C 45.908354 7.2511606 46.268503 6.587229 46.609375 5.9433594 C 47.291119 4.6556201 47.894531 3.4472656 47.894531 3.4472656 A 1.0001 1.0001 0 0 0 47.033203 2 A 1.0001 1.0001 0 0 0 46.544922 2.109375 C 46.544922 2.109375 45.313477 2.7366598 44.015625 3.4296875 C 43.366699 3.7762014 42.70226 4.1390485 42.15625 4.453125 C 41.883245 4.6101633 41.640981 4.7547211 41.4375 4.8847656 C 41.234019 5.0148101 41.096499 5.0890474 40.892578 5.2929688 C 40.144708 6.0408397 40.058752 7.1627252 40.529297 8.1132812 A 1.0001 1.0001 0 0 0 40.292969 8.2929688 L 37.214844 11.371094 C 37.036822 9.1187784 34.079289 7.0904255 31.699219 5.9003906 C 27.499219 4.0003906 23.899609 3.1992188 19.099609 3.1992188 C 17.099609 3.1992188 14.900781 3.2996094 12.300781 3.5996094 C 11.000781 3.6996094 9.7992188 3.9003906 8.6992188 3.9003906 C 7.0992188 3.9003906 5.6996094 3.6 4.5996094 2.5 C 4.2996094 2.1 3.9 2 3.5 2 z M 18.5 5.1992188 L 19.099609 5.1992188 C 23.699609 5.1992188 26.899219 5.8992187 30.699219 7.6992188 C 33.599219 9.0992187 35.199609 10.799609 35.099609 11.599609 C 34.999609 12.099609 34.8 12.699219 34 12.699219 C 33.6 12.699219 33.200391 12.600781 32.900391 12.300781 C 30.500391 10.400781 25 6.4992188 18.5 5.1992188 z M 44.644531 5.3691406 C 44.374076 5.8740991 44.095725 6.3911204 43.857422 6.8027344 C 43.559135 7.3179575 43.207266 7.7790616 43.292969 7.6933594 C 43.189387 7.7969408 43.147067 7.8039879 43.033203 7.7929688 C 42.919339 7.7819496 42.723126 7.7075005 42.507812 7.4921875 C 42.144531 7.128905 42.278045 6.7356268 42.306641 6.7070312 C 42.227719 6.7859526 42.353481 6.6726899 42.513672 6.5703125 C 42.673862 6.4679351 42.895661 6.3351492 43.152344 6.1875 C 43.57622 5.9436776 44.116916 5.6531647 44.644531 5.3691406 z M 14.199219 6.6992188 C 20.599219 6.6992188 27.200781 10.300391 31.800781 13.900391 C 32.4436 14.359547 33.17026 14.637244 33.904297 14.681641 L 14.65625 33.929688 L 9.890625 33.134766 L 6.2617188 6.8339844 C 7.1000821 7.025691 7.9580395 7.0996094 8.8007812 7.0996094 C 10.200781 7.0996094 11.500781 6.9007813 12.800781 6.8007812 C 13.300781 6.8007812 13.699219 6.6992187 14.199219 6.6992188 z M 38.400391 14.900391 L 38.5 14.900391 C 39.3 14.900391 41.000781 16.500781 42.300781 19.300781 C 44.100781 23.100781 44.800781 26.400391 44.800781 31.400391 C 43.500781 25.000391 39.599219 19.499609 37.699219 17.099609 C 37.399219 16.699609 37.200391 15.999609 37.400391 15.599609 C 37.500391 15.499609 37.600391 15.100391 38.400391 14.900391 z M 35.3125 16.101562 C 35.343661 16.881979 35.610167 17.671498 36.099609 18.300781 C 39.899609 23.200781 43.799219 30.399219 43.199219 37.199219 C 43.013311 39.2442 42.679545 41.558275 43.162109 43.736328 L 16.865234 40.109375 L 16.070312 35.34375 L 35.3125 16.101562 z M 9.34375 35.070312 L 12.919922 35.666016 L 8.65625 39.929688 L 5.0800781 39.333984 L 9.34375 35.070312 z M 14.333984 37.080078 L 14.929688 40.65625 L 10.666016 44.919922 L 10.070312 41.34375 L 14.333984 37.080078 z"/>
</svg>
