<?xml version="1.0"?>
<svg xmlns="http://www.w3.org/2000/svg" viewBox="0 0 50 50" enable-background="new 0 0 50 50">
    <path d="M 33.59375 0.09375 L 30.1875 9.09375 L 21.5 4.6875 L 25.5 13.5 L 16.3125 16.5 L 24.34375 19.65625 L 17.78125 26.28125 A 1.016466 1.016466 0 0 0 17.59375 26.53125 L 2 42.09375 C 0.7 43.49375 0.8 45.60625 2 46.90625 L 3.09375 48 C 3.79375 48.6 4.7 49 5.5 49 C 6.4 49 7.20625 48.7 7.90625 48 L 23.53125 32.375 L 23.71875 32.21875 L 26 29.90625 L 29.96875 25.96875 L 32.6875 33.6875 L 36.1875 24.8125 L 44.6875 29.09375 L 40.8125 20.40625 L 50 17.3125 L 41 13.8125 L 45.40625 5.3125 L 36.59375 9.1875 L 33.59375 0.09375 z M 31.3125 16.09375 C 31.690278 16.09375 31.969812 16.18856 32.28125 16.5 L 32.3125 16.53125 L 33.46875 17.5625 C 34.036116 18.192906 34.007163 19.086587 33.5 19.59375 L 24.59375 28.5 L 21.5 25.40625 L 30.3125 16.5 C 30.623938 16.188562 30.934722 16.09375 31.3125 16.09375 z M 41 33.1875 L 38.8125 38.8125 L 33.1875 41 L 38.8125 43.1875 L 41 48.8125 L 43.1875 43.1875 L 48.8125 41 L 43.1875 38.8125 L 41 33.1875 z M 28.1875 34 L 27.1875 36.5 L 24.6875 37.5 L 27.1875 38.5 L 28.1875 41 L 29.1875 38.5 L 31.6875 37.5 L 29.1875 36.5 L 28.1875 34 z"/>
</svg>
