<?xml version="1.0"?>
<svg xmlns="http://www.w3.org/2000/svg" viewBox="0 0 50 50">
    <path style="line-height:normal;text-indent:0;text-align:start;text-decoration-line:none;text-decoration-style:solid;text-decoration-color:#000;text-transform:none;block-progression:tb;isolation:auto;mix-blend-mode:normal" d="M 25 2 C 20.876667 2 18.318359 4.3691406 18.318359 4.3691406 A 1.0001 1.0001 0 1 0 19.681641 5.8320312 C 19.681641 5.8320313 21.623333 4 25 4 C 28.376667 4 30.318359 5.8320314 30.318359 5.8320312 A 1.0001 1.0001 0 1 0 31.681641 4.3691406 C 31.681641 4.3691406 29.123333 2 25 2 z M 16 6 C 12.453175 6 10.02777 8.1129958 7.8632812 9.9042969 C 5.6987925 11.695598 3.8422851 13.165876 1.0957031 12.904297 A 1.0001 1.0001 0 0 0 0.0390625 14.173828 C 0.18916887 14.6992 0.57973191 15.609845 1.5058594 16.443359 C 2.3554614 17.208001 3.7205835 17.779698 5.4941406 17.835938 C 5.618694 17.944582 5.6938698 18.149188 5.8222656 18.224609 C 6.1690077 18.42829 6.541793 18.556248 6.9335938 18.648438 C 7.534522 18.789831 8.1714525 18.737116 8.796875 18.660156 C 8.9071437 18.720936 9.0164675 18.822368 9.1425781 18.876953 C 9.4162338 18.995401 9.7345392 19.100919 10.087891 19.177734 C 10.651221 19.300197 11.342733 19.217014 12.021484 19.042969 C 12.44299 19.232329 12.869508 19.449543 13.291016 19.4375 C 13.592658 19.4289 13.852927 19.28217 14.136719 19.205078 C 14.43399 19.630567 14.671372 20.050049 15.150391 20.501953 C 15.892175 21.201749 16.763869 21.914774 17.929688 21.998047 A 1.0005207 1.0005207 0 1 0 18.070312 20.001953 C 17.836132 19.985223 17.106653 19.597079 16.523438 19.046875 C 15.940221 18.496671 15.427296 17.724237 15.419922 17.707031 A 1.0001 1.0001 0 0 0 14.003906 17.232422 C 13.81865 17.338283 13.5012 17.429876 13.234375 17.4375 C 12.96755 17.4451 12.784161 17.36864 12.740234 17.332031 A 1.0001 1.0001 0 0 0 11.685547 17.189453 C 11.439002 17.301519 10.955017 17.319029 10.511719 17.222656 C 10.290069 17.174476 10.082594 17.103818 9.9375 17.041016 C 9.7924057 16.978216 9.6852221 16.870771 9.8066406 16.992188 A 1.0001 1.0001 0 0 0 8.8359375 16.734375 C 8.5357866 16.816234 7.8820238 16.816795 7.390625 16.701172 C 7.1449256 16.64336 6.9360704 16.558819 6.8359375 16.5 C 6.8002234 16.479021 6.8038304 16.477216 6.8027344 16.474609 A 1.0001 1.0001 0 0 0 5.8730469 15.900391 C 4.2978381 15.944146 3.4176226 15.473517 2.84375 14.957031 C 2.7723558 14.892776 2.7962173 14.857968 2.734375 14.791016 C 5.3336648 14.438257 7.3546362 12.920139 9.1367188 11.445312 C 11.32223 9.6366146 13.246825 8 16 8 C 16.497059 8 16.993242 8.2742759 17.386719 8.7226562 C 17.780195 9.1710368 18 9.7829435 18 10.099609 C 18 10.932943 17.78793 11.720399 17.560547 12.345703 C 17.469038 12.597353 17.382019 12.80211 17.298828 13 L 9 13 A 1.0001 1.0001 0 1 0 9 15 L 17.851562 15 A 1.0001 1.0001 0 0 0 18.150391 15 L 22 15 A 1.0001 1.0001 0 0 0 22.041016 15 C 22.041016 15 22.869765 14.95828 23.611328 14.386719 C 24.195983 13.936093 24.715717 13.133927 24.912109 11.990234 C 24.941983 11.991134 24.969926 12 25 12 C 25.030074 12 25.058017 11.991134 25.087891 11.990234 C 25.284283 13.133927 25.804014 13.936093 26.388672 14.386719 C 26.919113 14.795556 27.385484 14.901973 27.669922 14.947266 A 1.0001 1.0001 0 0 0 27.951172 14.998047 C 27.951272 14.998052 27.958984 15 27.958984 15 A 1.0001 1.0001 0 0 0 28 15 L 41 15 A 1.0001 1.0001 0 1 0 41 13 L 32.529297 13 C 32.49504 12.930776 32.474559 12.902014 32.423828 12.779297 C 32.228881 12.30772 32 11.468073 32 10.099609 A 1.0001 1.0001 0 0 0 31.994141 9.9902344 C 31.968875 9.759979 32.146416 9.1831149 32.550781 8.7363281 C 32.955147 8.2895413 33.50451 8 34 8 C 36.753175 8 38.67777 9.6366146 40.863281 11.445312 C 42.645364 12.92014 44.666335 14.438257 47.265625 14.791016 C 47.203785 14.857966 47.227645 14.892776 47.15625 14.957031 C 46.582377 15.473517 45.702162 15.944146 44.126953 15.900391 A 1.0001 1.0001 0 0 0 43.164062 16.548828 C 43.225702 16.384465 43.025879 16.667394 42.558594 16.777344 C 42.091309 16.887293 41.480016 16.872893 41.117188 16.751953 A 1.0001 1.0001 0 0 0 40.097656 16.988281 C 40.192739 16.893041 40.101006 16.981234 39.962891 17.041016 C 39.817796 17.103816 39.608368 17.174472 39.386719 17.222656 C 38.94342 17.319026 38.459435 17.301513 38.212891 17.189453 A 1.0001 1.0001 0 0 0 37.160156 17.332031 C 37.116226 17.368631 36.93284 17.445124 36.666016 17.4375 C 36.399191 17.4299 36.081741 17.33828 35.896484 17.232422 A 1.0001 1.0001 0 0 0 34.480469 17.707031 C 34.457249 17.761211 33.969724 18.513866 33.412109 19.060547 C 32.854495 19.607227 32.16218 19.985346 31.929688 20.001953 A 1.0005207 1.0005207 0 1 0 32.070312 21.998047 C 33.23782 21.914657 34.095114 21.191601 34.8125 20.488281 C 35.272852 20.036956 35.495859 19.628206 35.779297 19.208984 C 36.05829 19.283434 36.31327 19.42904 36.609375 19.4375 C 37.030701 19.44954 37.455604 19.232132 37.876953 19.042969 C 38.556415 19.217679 39.248603 19.300321 39.8125 19.177734 C 40.165851 19.100924 40.482204 18.995401 40.755859 18.876953 C 40.878222 18.823993 40.984716 18.724182 41.091797 18.666016 C 41.740844 18.776257 42.401734 18.867101 43.015625 18.722656 C 43.59715 18.585827 44.136997 18.289077 44.564453 17.826172 C 46.305142 17.756742 47.654907 17.198669 48.494141 16.443359 C 49.420268 15.609845 49.810831 14.6992 49.960938 14.173828 A 1.0001 1.0001 0 0 0 48.904297 12.904297 C 46.157715 13.165876 44.301208 11.695598 42.136719 9.9042969 C 39.97223 8.1129958 37.546825 6 34 6 C 32.79549 6 31.774494 6.6143181 31.068359 7.3945312 C 30.37134 8.1646731 29.911486 9.1241659 30.011719 10.169922 C 30.020719 11.463427 30.247384 12.294502 30.484375 13 L 28.041016 13 C 28.041016 13 27.869765 13.0019 27.611328 12.802734 C 27.369698 12.616499 27.056771 12.249691 27.015625 11.201172 C 27.615431 10.650998 28 9.8694566 28 9 C 28 7.3549904 26.64501 6 25 6 C 23.35499 6 22 7.3549904 22 9 C 22 9.8694566 22.384569 10.650998 22.984375 11.201172 C 22.943229 12.249691 22.630302 12.616499 22.388672 12.802734 C 22.130235 13.001925 21.958984 13 21.958984 13 L 19.449219 13 C 19.71888 12.253069 20 11.252254 20 10.099609 C 20 9.1162768 19.570195 8.1789632 18.888672 7.4023438 C 18.207148 6.6257241 17.202941 6 16 6 z M 25 8 C 25.564129 8 26 8.4358706 26 9 C 26 9.5641294 25.564129 10 25 10 C 24.435871 10 24 9.5641294 24 9 C 24 8.4358706 24.435871 8 25 8 z M 19.9375 16.988281 A 1.0001 1.0001 0 0 0 19.142578 18.513672 C 19.142578 18.513672 20.487598 20.766576 20.882812 24.826172 C 19.706964 24.617929 18.611469 24.399831 17.691406 24.158203 C 16.704842 23.89911 15.90793 23.605127 15.447266 23.337891 C 14.986601 23.070654 15 22.95842 15 23 A 1.0001 1.0001 0 0 0 14.884766 22.519531 A 1.0001 1.0001 0 0 0 14.552734 22.152344 A 1.0001 1.0001 0 0 0 14.466797 22.101562 A 1.0001 1.0001 0 0 0 14.183594 22.001953 A 1.0001 1.0001 0 0 0 13.984375 21.986328 A 1.0001 1.0001 0 0 0 13.884766 21.992188 A 1.0001 1.0001 0 0 0 13.787109 22.009766 A 1.0001 1.0001 0 0 0 13.507812 22.115234 A 1.0001 1.0001 0 0 0 13.271484 22.300781 A 1.0001 1.0001 0 0 0 13.0625 22.636719 A 1.0001 1.0001 0 0 0 13.001953 22.929688 A 1.0001 1.0001 0 0 0 13 23 L 13 27 C 13 27.95833 13.700899 28.63765 14.443359 29.068359 C 15.18582 29.499068 16.107658 29.809233 17.183594 30.091797 C 18.049462 30.319192 19.031364 30.518415 20.054688 30.707031 L 20.724609 39.115234 C 21.216609 39.261234 21.885484 39.430187 22.771484 39.617188 L 22.085938 31.050781 C 23.001195 31.198276 23.912876 31.346366 24.849609 31.488281 C 25.881322 31.644586 26.878986 31.804764 27.867188 31.966797 L 26.775391 47.972656 C 28.022391 47.833656 28.998094 46.788453 28.996094 45.564453 L 29.851562 32.3125 C 30.740675 32.480177 31.58692 32.65227 32.308594 32.841797 C 33.295158 33.10089 34.09207 33.394873 34.552734 33.662109 C 35.013399 33.929346 35 34.04158 35 34 L 35 35 C 35 35.292 34.471547 35.886969 31.560547 36.917969 L 31.419922 39.083984 C 35.057922 37.878984 37 36.733 37 35 L 37 34.013672 A 1.0001 1.0001 0 0 0 37 34 L 37 31 L 37 30 C 37 29.04167 36.299101 28.36235 35.556641 27.931641 C 34.81418 27.500932 33.892342 27.190767 32.816406 26.908203 C 31.695385 26.613799 30.401897 26.361256 29.037109 26.126953 C 29.224614 21.259818 30.857422 18.513672 30.857422 18.513672 A 1.0001 1.0001 0 0 0 30.033203 16.988281 A 1.0001 1.0001 0 0 0 29.142578 17.486328 C 29.142578 17.486328 27.313959 20.633362 27.052734 25.8125 C 26.414482 25.713062 25.795162 25.609402 25.150391 25.511719 C 24.385092 25.395776 23.659083 25.274614 22.912109 25.15625 C 22.541984 20.376896 20.857422 17.486328 20.857422 17.486328 A 1.0001 1.0001 0 0 0 20.037109 16.988281 A 1.0001 1.0001 0 0 0 19.9375 16.988281 z M 15 25.275391 C 15.648868 25.582865 16.326108 25.866603 17.183594 26.091797 C 19.335465 26.656924 22.099609 27.071656 24.849609 27.488281 C 25.785145 27.630015 26.683148 27.775825 27.585938 27.921875 A 1.0001 1.0001 0 0 0 28.115234 28.007812 L 28.117188 28.007812 C 29.669742 28.265721 31.137101 28.534138 32.308594 28.841797 C 33.295158 29.10089 34.09207 29.394873 34.552734 29.662109 C 35.013399 29.929346 35 30.04158 35 30 L 35 31.724609 C 34.351132 31.417135 33.673892 31.133397 32.816406 30.908203 C 30.664535 30.343076 27.900391 29.928344 25.150391 29.511719 C 22.400391 29.095094 19.664535 28.676389 17.691406 28.158203 C 16.704842 27.89911 15.90793 27.605127 15.447266 27.337891 C 14.986601 27.070654 15 26.95842 15 27 L 15 25.275391 z M 18.556641 37.095703 C 17.138774 37.797495 16.115292 38.660414 16.019531 39.826172 A 1.0001 1.0001 0 0 0 16 40 L 16 44 C 16 44.782088 16.493525 45.410894 17.044922 45.818359 C 17.596319 46.225825 18.268934 46.516941 19.052734 46.783203 C 20.620336 47.315728 22.65058 47.712923 24.839844 48.070312 A 1.0001 1.0001 0 0 0 26 47.082031 L 26 43.082031 A 1.0001 1.0001 0 0 0 25.160156 42.095703 C 23.01242 41.745093 21.043461 41.3486 19.695312 40.890625 C 19.021238 40.661637 18.505322 40.409206 18.234375 40.208984 C 17.963428 40.008763 18 39.965912 18 40 C 18 39.982 18.016469 39.732203 18.730469 39.283203 L 18.556641 37.095703 z M 18 42.277344 C 18.347951 42.444192 18.641777 42.643598 19.052734 42.783203 C 20.3928 43.238432 22.173478 43.565918 24 43.882812 L 24 45.839844 C 22.383443 45.547545 20.757255 45.251374 19.695312 44.890625 C 19.021238 44.661637 18.505322 44.409206 18.234375 44.208984 C 17.963428 44.008763 18 43.965912 18 44 L 18 42.277344 z"/>
</svg>
